HIERARCHY
ROOT Hips
{
	OFFSET -3.958830 18.904000 13.208200
	CHANNELS 6 Xposition Yposition Zposition Zrotation Yrotation Xrotation 
	JOINT LHipJoint
	{
		OFFSET 0.000000 0.000000 0.000000
		CHANNELS 3 Zrotation Yrotation Xrotation
		JOINT LeftUpLeg
		{
			OFFSET 1.800000 -1.400000 0.085000
			CHANNELS 3 Zrotation Yrotation Xrotation
			JOINT LeftLeg
			{
				OFFSET 2.215000 -6.000000 0.000000
				CHANNELS 3 Zrotation Yrotation Xrotation
				JOINT LeftFoot
				{
					OFFSET 2.500000 -6.900000 0.000000
					CHANNELS 3 Zrotation Yrotation Xrotation
					JOINT LeftToeBase
					{
						OFFSET 0.200000 -0.500000 1.950000
						CHANNELS 3 Zrotation Yrotation Xrotation
						End Site
						{
							OFFSET 0.000000 0.000000 0.000000
						}
					}
				}
			}
		}
	}
	JOINT RHipJoint
	{
		OFFSET 0.000000 0.000000 0.000000
		CHANNELS 3 Zrotation Yrotation Xrotation
		JOINT RightUpLeg
		{
			OFFSET -1.800000 -1.400000 0.085000
			CHANNELS 3 Zrotation Yrotation Xrotation
			JOINT RightLeg
			{
				OFFSET -2.215000 -6.000000 0.000000
				CHANNELS 3 Zrotation Yrotation Xrotation
				JOINT RightFoot
				{
					OFFSET -2.500000 -6.900000 0.000000
					CHANNELS 3 Zrotation Yrotation Xrotation
					JOINT RightToeBase
					{
						OFFSET -0.200000 -0.500000 1.950000
						CHANNELS 3 Zrotation Yrotation Xrotation
						End Site
						{
							OFFSET 0.000000 0.000000 0.000000
						}
					}
				}
			}
		}
	}
	JOINT LowerBack
	{
		OFFSET 0.000000 0.000000 0.000000
		CHANNELS 3 Zrotation Yrotation Xrotation
		JOINT Spine
		{
			OFFSET -0.087000 1.940000 -0.288900
			CHANNELS 3 Zrotation Yrotation Xrotation
			JOINT Spine1
			{
				OFFSET 0.000000 1.950000 0.060000
				CHANNELS 3 Zrotation Yrotation Xrotation
				JOINT Neck
				{
					OFFSET 0.000000 0.000000 0.000000
					CHANNELS 3 Zrotation Yrotation Xrotation
					JOINT Neck1
					{
						OFFSET 0.000000 1.600000 0.340000
						CHANNELS 3 Zrotation Yrotation Xrotation
						JOINT Head
						{
							OFFSET 0.000000 1.667000 -0.240000
							CHANNELS 3 Zrotation Yrotation Xrotation
							End Site
							{
								OFFSET 0.000000 0.000000 0.000000
							}
						}
					}
				}
				JOINT LeftShoulder
				{
					OFFSET 0.000000 0.000000 0.000000
					CHANNELS 3 Zrotation Yrotation Xrotation
					JOINT LeftArm
					{
						OFFSET 2.700000 1.550000 -0.730000
						CHANNELS 3 Zrotation Yrotation Xrotation
						JOINT LeftForeArm
						{
							OFFSET 5.450000 0.000000 0.000000
							CHANNELS 3 Zrotation Yrotation Xrotation
							JOINT LeftHand
							{
								OFFSET 3.450000 0.000000 0.000000
								CHANNELS 3 Zrotation Yrotation Xrotation
								JOINT LeftHandIndex1
								{
									OFFSET 0.750000 0.000000 0.000000
									CHANNELS 3 Zrotation Yrotation Xrotation
									End Site
									{
										OFFSET 0.000000 0.000000 0.000000
									}
								}
							}
						}
					}
				}
				JOINT RightShoulder
				{
					OFFSET 0.000000 0.000000 0.000000
					CHANNELS 3 Zrotation Yrotation Xrotation
					JOINT RightArm
					{
						OFFSET -2.700000 1.550000 -0.730000
						CHANNELS 3 Zrotation Yrotation Xrotation
						JOINT RightForeArm
						{
							OFFSET -5.450000 0.000000 0.000000
							CHANNELS 3 Zrotation Yrotation Xrotation
							JOINT RightHand
							{
								OFFSET -3.450000 0.000000 0.000000
								CHANNELS 3 Zrotation Yrotation Xrotation
								JOINT RightHandIndex1
								{
									OFFSET -0.750000 0.000000 0.000000
									CHANNELS 3 Zrotation Yrotation Xrotation
									End Site
									{
										OFFSET 0.000000 0.000000 0.000000
									}
								}
							}
						}
					}
				}
			}
		}
	}
}
MOTION
Frames: 9
Frame Time: 0.016667
-2.384090 17.971960 2.988150 8.851335 -12.955345 1.625882 -15.197082 12.991347 4.700639 3.572551 -10.373328 -24.199773 4.129219 17.288815 88.177870 2.476133 15.878149 -0.261396 -0.595520 -0.867450 -0.640600 18.297281 -10.288726 2.255467 -5.318630 2.260045 -29.270037 -7.028224 -4.749053 36.091681 -0.082876 -4.648683 3.005739 -0.652170 0.741640 0.142400 -3.469279 -2.825373 -8.598019 15.728170 -4.516767 20.965769 -4.943056 -0.713099 -10.585296 4.591112 -2.492676 -8.147420 -6.720730 4.658129 38.351729 -6.465080 7.122860 9.663660 -3.876656 21.188386 -0.454388 -52.440508 19.536783 -16.603605 -19.966616 -43.763116 5.499450 -3.817393 3.013153 0.489710 0.355750 -0.295300 0.123890 -5.609454 -18.223531 5.470582 65.282557 -19.430527 -24.792929 13.887581 46.084731 4.613907 1.879174 -1.260695 -0.388660 0.213900 0.528760 0.011870 
-2.384350 17.987160 2.947380 9.079424 -13.324065 1.428494 -15.251211 12.956638 4.869109 4.068010 -10.733930 -26.018633 2.964082 18.218908 87.633504 2.435460 15.978305 -0.318810 -0.587800 -0.884910 -0.597780 18.249593 -10.175975 2.248165 -5.362482 2.388099 -29.383714 -7.115751 -4.682245 36.020337 -0.100163 -4.576472 3.005424 -0.659350 0.705240 0.144960 -3.322015 -3.036726 -8.726789 15.103265 -4.527739 22.980463 -4.705134 -0.219416 -11.819426 4.816165 -2.644944 -8.408180 -7.262330 4.723439 39.618528 -6.986780 7.223750 7.954410 -4.680199 20.647401 -0.719532 -52.235443 18.251673 -15.618196 -19.532114 -43.898404 5.464902 -3.813699 2.958694 0.551750 0.317550 -0.264810 0.094730 -5.117164 -17.155220 5.620985 64.977125 -18.270164 -23.948842 13.746566 47.115463 4.882643 1.881636 -1.231907 -0.402510 0.226420 0.544890 -0.020990 
-2.360990 18.025400 2.876230 8.947616 -13.821010 1.007089 -15.293367 12.782751 5.211877 5.269443 -11.592038 -29.286810 0.151065 20.523570 86.990661 2.386018 16.339350 -0.458070 -0.585140 -0.918350 -0.555430 18.238246 -10.000198 2.175217 -4.975168 2.479591 -29.112491 -7.565795 -4.474670 35.404272 -0.111425 -4.392058 3.045314 -0.656020 0.673380 0.123120 -3.267666 -3.245456 -8.860794 16.017805 -5.466603 26.358066 -5.723807 -0.013088 -13.664622 5.177487 -3.653486 -8.773282 -9.498976 5.846069 41.698741 -7.077750 7.238600 4.687440 -6.221067 19.607568 -1.145287 -52.059251 15.730175 -13.939968 -17.927617 -45.577556 5.331952 -3.804506 2.854019 0.664170 0.257400 -0.236120 0.052530 -4.300513 -14.920329 5.769212 64.605715 -15.126752 -22.143309 11.749468 48.779765 4.726161 1.871205 -1.156883 -0.457710 0.286100 0.588380 -0.074550 
-2.331180 18.038820 2.786080 8.732937 -14.006937 0.408171 -15.336111 12.429096 5.642082 7.264605 -12.628288 -33.208202 -4.292578 23.860858 85.450117 2.383105 16.828198 -0.624659 -0.549510 -0.893450 -0.531550 18.255268 -9.822956 2.052178 -4.850759 2.505195 -28.731180 -7.541556 -4.549769 35.144369 -0.140993 -4.329993 3.044610 -0.620010 0.655520 0.132710 -3.275752 -3.238289 -8.966397 17.108326 -6.401704 29.579569 -6.807251 0.103664 -13.941843 5.390186 -4.580953 -8.928365 -11.447225 6.505425 42.379599 -6.993610 6.544710 0.508280 -8.461192 17.037200 -1.477189 -52.058557 11.572140 -12.487195 -12.359412 -48.259677 3.570405 -3.798499 2.790041 0.737620 0.220170 -0.206860 0.043960 -2.584320 -11.467463 5.872790 63.732183 -11.466073 -20.662166 7.893488 51.422735 3.570038 1.833363 -1.124547 -0.481990 0.330460 0.612950 -0.099760 
-2.301820 18.035720 2.684210 8.724971 -14.659780 0.033551 -15.393496 11.987702 6.110353 9.622241 -13.423094 -37.599298 -9.938966 27.616761 82.505391 2.401656 17.273845 -0.767074 -0.518700 -0.865570 -0.507500 18.277097 -9.591135 1.971879 -4.675724 2.788878 -28.994484 -7.774207 -4.462808 35.342946 -0.156947 -4.321813 3.012883 -0.576040 0.639900 0.111700 -3.279753 -3.163770 -9.090942 17.573886 -7.071663 32.798345 -7.544794 0.324031 -13.960221 5.383188 -5.601577 -9.214034 -13.495291 7.318525 42.007200 -5.850840 5.593470 -2.542770 -9.316165 14.450883 -1.602342 -52.201765 6.482613 -10.567056 -4.684258 -48.382194 0.647920 -3.785321 2.713692 0.776430 0.182470 -0.207580 0.026840 -1.726749 -7.855058 6.128798 62.921602 -7.744941 -19.245415 3.105434 54.584451 1.758739 1.801762 -1.116869 -0.511290 0.365560 0.626010 -0.119920 
-2.269950 18.041060 2.560580 9.243024 -15.549259 -1.372512 -15.449167 11.630179 6.506696 11.561352 -13.919097 -40.881282 -15.980755 30.689071 78.246786 2.416168 17.415219 -0.829340 -0.430280 -0.738740 -0.451800 18.277096 -9.479311 1.846973 -5.145710 2.845846 -28.592973 -7.968595 -4.330617 35.310941 -0.202327 -4.324507 2.971089 -0.497760 0.596080 0.136760 -3.234016 -3.013945 -9.187307 16.944645 -7.186035 36.885079 -7.881065 0.813869 -12.170034 5.603410 -5.790738 -9.528556 -13.795288 7.200980 41.600341 -6.455190 5.270990 -6.501360 -11.185822 9.587395 -1.369720 -50.285257 0.998659 -8.974742 2.138677 -48.484775 -2.193484 -3.762186 2.683374 0.777070 0.158170 -0.159570 0.037130 -0.284702 -2.595882 6.465784 61.424614 -3.416270 -18.612361 -6.982484 56.895766 -3.123830 1.748865 -1.067605 -0.477240 0.372880 0.591420 -0.115140 
-2.241960 18.030200 2.429750 10.156365 -16.191250 -2.979899 -15.472283 11.220087 6.831850 13.159788 -14.359111 -43.909553 -21.779608 32.810267 73.532837 2.418792 17.245250 -0.814454 -0.281040 -0.495630 -0.376770 18.308719 -9.467873 1.742438 -5.859798 2.845864 -28.546439 -8.475490 -4.085354 35.821589 -0.255726 -4.451962 2.897318 -0.358440 0.526930 0.144500 -3.276182 -2.578756 -9.252839 15.938938 -6.811162 39.515092 -8.189629 1.138796 -7.228975 5.667139 -5.142795 -10.214527 -12.157502 6.423550 40.297266 -6.837790 5.248640 -8.665760 -12.281296 2.263848 -0.197669 -46.867918 -4.682470 -8.316257 10.003802 -47.141296 -5.594357 -3.714544 2.694740 0.700510 0.156180 -0.115830 0.073350 0.655392 4.197705 7.153287 59.420325 0.791787 -19.012854 -19.524382 57.131092 -10.068728 1.667762 -1.028728 -0.400100 0.348280 0.491150 -0.090990 
-2.230370 18.032170 2.295740 11.212558 -16.478173 -4.955705 -15.493709 10.913192 7.053941 14.491111 -14.742898 -46.150618 -26.776693 33.470951 68.489763 2.256796 16.808215 -0.771690 -0.108780 -0.251460 -0.253670 18.332230 -9.524854 1.611264 -6.381964 2.730350 -27.871615 -9.462822 -3.643775 36.196036 -0.338878 -4.567897 2.806600 -0.196370 0.454540 0.183540 -3.293688 -2.190448 -9.239567 14.538881 -6.201271 41.255802 -7.853728 1.345596 0.480702 5.634137 -4.239934 -11.177796 -10.167211 5.401322 38.928993 -7.954580 5.079910 -12.720130 -12.869028 -7.066120 1.809848 -41.709358 -9.277531 -8.922995 18.917670 -44.245184 -9.401316 -3.682078 2.651700 0.682250 0.156880 -0.042210 0.094130 1.321225 12.493562 8.131068 55.122787 4.829786 -19.788742 -32.930830 53.539506 -16.988672 1.549762 -0.941520 -0.346180 0.356880 0.412810 -0.098890 
-2.227290 18.039920 2.185700 12.267120 -17.040377 -5.915107 -15.517240 10.627119 7.246200 15.930095 -14.755596 -48.707287 -30.984966 33.211709 63.382291 2.055922 16.226448 -0.668059 0.018910 -0.062190 -0.152080 18.360519 -9.526931 1.554940 -6.368501 2.843028 -27.863180 -10.836818 -2.948664 35.783653 -0.398959 -4.515262 2.795870 -0.066680 0.421350 0.206830 -3.326159 -1.858495 -9.228170 13.244793 -5.555199 42.158932 -7.771287 1.491136 6.530748 5.426390 -3.495933 -12.000137 -8.514551 4.968961 37.653807 -8.752780 5.221420 -16.395660 -12.458481 -14.356724 3.679899 -35.388221 -11.314405 -9.613013 25.182334 -41.119831 -11.556920 -3.674987 2.603614 0.681340 0.162640 0.028820 0.120030 1.364447 18.880572 8.987697 49.828759 7.633420 -19.811800 -40.769172 48.789465 -20.347222 1.489858 -0.941517 -0.322280 0.413670 0.355410 -0.101640 
